<?xml version="1.0" encoding="UTF-8" standalone="no"?>
<svg
   width="32px"
   height="32px"
   viewBox="0 0 32 32"
   version="1.1"
   id="svg2"
   inkscape:version="1.4.2 (f4327f4, 2025-05-13)"
   sodipodi:docname="spotpear-block-icon.svg"
   xmlns:inkscape="http://www.inkscape.org/namespaces/inkscape"
   xmlns:sodipodi="http://sodipodi.sourceforge.net/DTD/sodipodi-0.dtd"
   xmlns="http://www.w3.org/2000/svg"
   xmlns:svg="http://www.w3.org/2000/svg"
   xmlns:rdf="http://www.w3.org/1999/02/22-rdf-syntax-ns#"
   xmlns:cc="http://creativecommons.org/ns#"
   xmlns:dc="http://purl.org/dc/elements/1.1/">
  <metadata
     id="metadata35">
    <rdf:RDF>
      <cc:Work
         rdf:about="">
        <dc:format>image/svg+xml</dc:format>
        <dc:type
           rdf:resource="http://purl.org/dc/dcmitype/StillImage" />
        <dc:title>wedo-add-button</dc:title>
      </cc:Work>
    </rdf:RDF>
  </metadata>
  <sodipodi:namedview
     pagecolor="#0300ff"
     bordercolor="#666666"
     borderopacity="1"
     objecttolerance="10"
     gridtolerance="10"
     guidetolerance="10"
     inkscape:pageopacity="0"
     inkscape:pageshadow="2"
     inkscape:window-width="2560"
     inkscape:window-height="1377"
     id="namedview33"
     showgrid="false"
     inkscape:zoom="20.85965"
     inkscape:cx="13.830529"
     inkscape:cy="8.2695539"
     inkscape:window-x="-8"
     inkscape:window-y="-8"
     inkscape:window-maximized="1"
     inkscape:current-layer="svg2"
     inkscape:showpageshadow="2"
     inkscape:pagecheckerboard="0"
     inkscape:deskcolor="#d1d1d1" />
  <!-- Generator: Sketch 43.2 (39069) - http://www.bohemiancoding.com/sketch -->
  <title
     id="title4">wedo-add-button</title>
  <desc
     id="desc6">Created with Sketch.</desc>
  <defs
     id="defs8">
    <path
       d="M2,1.00752069 C2,0.451082376 2.45303631,0 2.99703014,0 L9.00296986,0 C9.5536144,0 10,0.442541372 10,1.00752069 L10,3.99267578 L2,3.99267578 L2,1.00752069 Z"
       id="path-1" />
    <path
       d="M14,1.00752069 C14,0.451082376 14.4530363,0 14.9970301,0 L21.0029699,0 C21.5536144,0 22,0.442541372 22,1.00752069 L22,3.99267578 L14,3.99267578 L14,1.00752069 Z"
       id="path-2" />
    <rect
       id="path-3"
       x="0"
       y="4"
       width="24"
       height="16"
       rx="1" />
  </defs>
  <g
     id="g3963"
     transform="translate(0.17521071,29.898305)">
    <rect
       style="opacity:0.12000002;fill:none;stroke:#000000;stroke-width:3.74534345;stroke-miterlimit:4;stroke-opacity:1;stroke-dasharray:none"
       id="rect3937"
       width="25.859743"
       height="14.334317"
       x="2.8949177"
       y="-21.065464"
       rx="7.2730522" />
    <rect
       rx="6.5593219"
       y="-20.067797"
       x="4.1637712"
       height="12.338983"
       width="23.322035"
       id="rect3935"
       style="fill:none;stroke:#ffffff;stroke-width:3.29999995;stroke-miterlimit:4;stroke-opacity:1;stroke-dasharray:none" />
    <path
       style="opacity:0.12000002;fill:#000000;fill-opacity:1;stroke:none"
       id="path3959"
       transform="matrix(1.4304128,0,0,1.4304128,-7.4264489,5.4001468)"
       d="m 14.101695,-13.491526 c 0,0.86119 -0.698133,1.559322 -1.559322,1.559322 -0.86119,0 -1.559322,-0.698132 -1.559322,-1.559322 0,-0.861189 0.698132,-1.559322 1.559322,-1.559322 0.861189,0 1.559322,0.698133 1.559322,1.559322 z"
       sodipodi:type="arc"
       sodipodi:ry="1.559322"
       sodipodi:rx="1.559322"
       sodipodi:cy="-13.491526"
       sodipodi:cx="12.542373" />
    <path
       transform="translate(-2.0280507,-0.40677897)"
       id="path3945"
       style="fill:#ffffff;fill-opacity:1;stroke:none"
       d="m 14.101695,-13.491526 c 0,0.86119 -0.698133,1.559322 -1.559322,1.559322 -0.86119,0 -1.559322,-0.698132 -1.559322,-1.559322 0,-0.861189 0.698132,-1.559322 1.559322,-1.559322 0.861189,0 1.559322,0.698133 1.559322,1.559322 z"
       sodipodi:type="arc"
       sodipodi:ry="1.559322"
       sodipodi:rx="1.559322"
       sodipodi:cy="-13.491526"
       sodipodi:cx="12.542373" />
    <path
       transform="matrix(1.4304128,0,0,1.4304128,3.1945515,5.4001464)"
       id="path3961"
       style="opacity:0.12000002;fill:#000000;fill-opacity:1;stroke:none"
       d="m 14.101695,-13.491526 c 0,0.86119 -0.698133,1.559322 -1.559322,1.559322 -0.86119,0 -1.559322,-0.698132 -1.559322,-1.559322 0,-0.861189 0.698132,-1.559322 1.559322,-1.559322 0.861189,0 1.559322,0.698133 1.559322,1.559322 z"
       sodipodi:type="arc"
       sodipodi:ry="1.559322"
       sodipodi:rx="1.559322"
       sodipodi:cy="-13.491526"
       sodipodi:cx="12.542373" />
    <path
       style="fill:#ffffff;fill-opacity:1;stroke:none"
       id="path3947"
       transform="translate(8.5929493,-0.40677897)"
       d="m 14.101695,-13.491526 c 0,0.86119 -0.698133,1.559322 -1.559322,1.559322 -0.86119,0 -1.559322,-0.698132 -1.559322,-1.559322 0,-0.861189 0.698132,-1.559322 1.559322,-1.559322 0.861189,0 1.559322,0.698133 1.559322,1.559322 z"
       sodipodi:type="arc"
       sodipodi:ry="1.559322"
       sodipodi:rx="1.559322"
       sodipodi:cy="-13.491526"
       sodipodi:cx="12.542373" />
  </g>
  <rect
     style="fill:#ffffff;stroke-width:1.4263"
     id="rect1"
     width="3.3220339"
     height="5.3400664"
     x="14.169492"
     y="2.8474576" />
  <rect
     style="fill:#ffffff;stroke-width:1.70079"
     id="rect2"
     width="2.9491525"
     height="2.9152544"
     x="18.957626"
     y="2.8644068" />
  <rect
     style="fill:#000000;fill-opacity:0.117647;stroke-width:1.71358"
     id="rect3"
     width="1.4261985"
     height="5.4016614"
     x="12.703953"
     y="1.5580319" />
  <rect
     style="fill:#000000;fill-opacity:0.117647;stroke-width:1.71846"
     id="rect4"
     width="9.1151619"
     height="1.2823801"
     x="14.130151"
     y="1.5460471" />
  <rect
     style="fill:#000000;fill-opacity:0.117647;stroke-width:1.7285"
     id="rect5"
     width="1.2881356"
     height="4.262712"
     x="21.940678"
     y="2.8220339" />
  <rect
     style="fill:#000000;fill-opacity:0.117647;stroke-width:1.70079"
     id="rect6"
     width="1.4745762"
     height="4.1101694"
     x="17.491526"
     y="2.8474576" />
  <rect
     style="fill:#000000;fill-opacity:0.117647;stroke-width:1.70079"
     id="rect7"
     width="2.9830508"
     height="1.1694915"
     x="18.957626"
     y="5.7966104" />
  <ellipse
     style="fill:#000000;fill-opacity:0.117647;stroke-width:1.70079"
     id="path7"
     cx="16.060776"
     cy="19.079279"
     rx="3.3898306"
     ry="1.1355932" />
</svg>
